<svg width="53" height="53" viewBox="0 0 53 53" fill="none" xmlns="http://www.w3.org/2000/svg">
<g clip-path="url(#clip0_97_41)">
<path d="M21.5601 41.5417H36.509C38.199 41.5417 39.5739 40.1668 39.5739 38.4769V23.2023C39.5739 23.1995 39.5735 23.1969 39.5735 23.1941C39.5712 21.2352 38.8076 19.3937 37.4222 18.0083L33.05 13.6361C31.6668 12.253 29.8291 11.4897 27.8734 11.4851C27.8675 11.485 27.8617 11.4842 27.8558 11.4842H17.7225C16.0331 11.4842 14.6587 12.8591 14.6587 14.5491V29.9212L14.7209 39.0153C14.7214 39.0744 14.7285 39.1334 14.7423 39.1908C15.0733 40.575 16.2989 41.5417 17.7225 41.5417H18.0793C18.5089 41.5417 18.8572 41.1934 18.8572 40.7638C18.8572 40.3342 18.5089 39.986 18.0793 39.986H17.7225C17.0485 39.986 16.4646 39.546 16.276 38.9063L16.2145 29.9158V14.549C16.2145 13.7168 16.8909 13.0399 17.7225 13.0399H26.8792C26.8822 13.0399 26.8852 13.0403 26.8882 13.0403C28.493 13.0403 29.7985 14.3458 29.7985 15.9504V18.1951C29.7985 19.885 31.1732 21.2597 32.8631 21.2597H35.1078C36.7124 21.2597 38.0179 22.5652 38.0179 24.1699C38.0179 24.1712 38.0181 24.1726 38.0181 24.1739V38.4768C38.0181 39.3089 37.3412 39.9859 36.509 39.9859H21.5601C21.1305 39.9859 20.7822 40.3341 20.7822 40.7637C20.7822 41.1933 21.1305 41.5417 21.5601 41.5417V41.5417ZM35.1078 19.7041H32.8631C32.0312 19.7041 31.3542 19.0272 31.3542 18.1952V15.9505C31.3542 15.197 31.1667 14.4867 30.8358 13.8634C31.2366 14.1048 31.6106 14.3968 31.95 14.7362L36.3221 19.1083C36.6614 19.4477 36.9534 19.8216 37.1948 20.2223C36.5716 19.8916 35.8613 19.7041 35.1078 19.7041Z" fill="#F21520"/>
<path d="M18.079 27.8826H36.1521C36.5817 27.8826 36.93 27.5343 36.93 27.1047C36.93 26.6751 36.5817 26.3269 36.1521 26.3269H18.079C17.6494 26.3269 17.3011 26.6751 17.3011 27.1047C17.3011 27.5343 17.6494 27.8826 18.079 27.8826V27.8826Z" fill="#F21520"/>
<path d="M18.079 30.849H36.1521C36.5817 30.849 36.93 30.5007 36.93 30.0711C36.93 29.6415 36.5817 29.2932 36.1521 29.2932H18.079C17.6494 29.2932 17.3011 29.6415 17.3011 30.0711C17.3011 30.5007 17.6494 30.849 18.079 30.849V30.849Z" fill="#F21520"/>
<path d="M18.079 33.8153H36.1521C36.5817 33.8153 36.93 33.4671 36.93 33.0375C36.93 32.6079 36.5817 32.2596 36.1521 32.2596H18.079C17.6494 32.2596 17.3011 32.6079 17.3011 33.0375C17.3011 33.4671 17.6494 33.8153 18.079 33.8153V33.8153Z" fill="#F21520"/>
<path d="M18.079 36.7817H24.7181C25.1477 36.7817 25.496 36.4334 25.496 36.0038C25.496 35.5742 25.1477 35.2259 24.7181 35.2259H18.079C17.6494 35.2259 17.3011 35.5742 17.3011 36.0038C17.3011 36.4334 17.6494 36.7817 18.079 36.7817Z" fill="#F21520"/>
<path d="M18.079 19.6551H24.7181C25.1477 19.6551 25.496 19.3068 25.496 18.8772C25.496 18.4476 25.1477 18.0993 24.7181 18.0993H18.079C17.6494 18.0993 17.3011 18.4476 17.3011 18.8772C17.3011 19.3068 17.6494 19.6551 18.079 19.6551Z" fill="#F21520"/>
<path d="M8.57926 26.1378C8.44246 25.8894 8.1814 25.7351 7.89783 25.7351H6.44515C6.85567 15.0568 15.6709 6.49542 26.4478 6.49542C29.6173 6.49542 32.648 7.21408 35.4557 8.6315C38.136 9.98512 40.5199 11.9637 42.3495 14.3532C43.1319 15.3747 44.5994 15.5695 45.6212 14.7872C46.1161 14.408 46.4339 13.8589 46.516 13.2408C46.598 12.6225 46.4342 12.0095 46.0551 11.5155C44.9627 10.0886 43.7059 8.77556 42.3198 7.61288C41.9907 7.33678 41.5 7.37983 41.2239 7.70892C40.9478 8.03802 40.9908 8.52871 41.32 8.80481C42.6189 9.89447 43.7966 11.1247 44.8204 12.4618C44.9466 12.6263 45.001 12.8302 44.9738 13.0361C44.9464 13.2423 44.8404 13.4255 44.6754 13.5519C44.3347 13.8126 43.8455 13.7477 43.5848 13.4072C41.6138 10.833 39.0452 8.7013 36.157 7.24261C33.1297 5.71453 29.8631 4.93965 26.4478 4.93965C14.5523 4.93965 4.87444 14.6175 4.87444 26.513C4.87444 26.9426 5.22273 27.2909 5.65233 27.2909H6.4854L4.33812 30.6857L2.19022 27.2909H2.54079C2.97039 27.2909 3.31867 26.9426 3.31867 26.513C3.31867 20.3358 5.72442 14.5274 10.0928 10.158C14.4623 5.78962 20.2706 3.38388 26.4478 3.38388C30.1077 3.38388 33.6102 4.21497 36.8579 5.85382C37.448 6.15191 38.034 6.48069 38.5996 6.83105C38.965 7.05726 39.4443 6.94462 39.6704 6.57943C39.8968 6.21424 39.784 5.73475 39.4188 5.50844C38.8151 5.13453 38.1895 4.78345 37.5591 4.46503C34.0918 2.71531 30.3534 1.8281 26.4478 1.8281C19.8551 1.8281 13.6561 4.39565 8.99268 9.05799C4.51434 13.5374 1.96857 19.4338 1.77483 25.7351H0.777576C0.49401 25.7351 0.232952 25.8894 0.0961474 26.1378C-0.0406569 26.3862 -0.031426 26.6892 0.12021 26.9289L3.68086 32.5567C3.82347 32.7821 4.07156 32.9187 4.33822 32.9187C4.60488 32.9187 4.85298 32.782 4.99559 32.5566L8.5552 26.9288C8.70683 26.6892 8.71596 26.3861 8.57926 26.1378V26.1378Z" fill="#F21520"/>
<path d="M52.879 26.0713L49.3186 20.4435C49.176 20.2181 48.9279 20.0815 48.6612 20.0815C48.3946 20.0815 48.1465 20.2181 48.0039 20.4435L44.4434 26.0713C44.2918 26.3109 44.2825 26.6141 44.4194 26.8624C44.5562 27.1108 44.8172 27.265 45.1008 27.265H46.5535C46.143 37.9431 37.3279 46.5043 26.5511 46.5043C23.3814 46.5043 20.3508 45.7858 17.5436 44.3687C14.8642 43.016 12.4802 41.0376 10.6491 38.6471C9.86678 37.6256 8.39917 37.4311 7.37744 38.2134C6.35592 38.9958 6.16134 40.4635 6.94379 41.4851C9.19945 44.4299 12.1374 46.8677 15.4402 48.5351C18.9055 50.2846 22.6437 51.1717 26.551 51.1717C33.1445 51.1717 39.3433 48.604 44.0056 43.9417C48.4841 39.4632 51.0298 33.5668 51.2236 27.2649H52.2216C52.5051 27.2649 52.7662 27.1107 52.903 26.8623C53.0399 26.6141 53.0307 26.3109 52.879 26.0713V26.0713ZM50.4577 25.7094C50.0281 25.7094 49.6798 26.0576 49.6798 26.4872C49.6798 32.6651 47.274 38.4732 42.9056 42.8417C38.5371 47.2101 32.729 49.616 26.5511 49.616C22.8896 49.616 19.3874 48.7851 16.1414 47.1464C13.0465 45.5839 10.2931 43.2991 8.17897 40.5392C7.91812 40.1987 7.98294 39.7094 8.32345 39.4487C8.66406 39.188 9.1532 39.2527 9.41405 39.5932C11.3867 42.1684 13.9553 44.3 16.8424 45.7576C19.869 47.2854 23.1354 48.0602 26.551 48.0602C38.4463 48.0602 48.124 38.3826 48.124 26.4872C48.124 26.0576 47.7757 25.7094 47.3461 25.7094H46.5132L48.661 22.3144L50.8088 25.7094H50.4577Z" fill="#F21520"/>
</g>
<defs>
<clipPath id="clip0_97_41">
<rect width="53" height="53" fill="white"/>
</clipPath>
</defs>
</svg>
