<svg width="53" height="53" viewBox="0 0 53 53" fill="none" xmlns="http://www.w3.org/2000/svg">
<path d="M32.5074 51.5675H32.4587C32.3274 51.5588 32.2011 51.5141 32.0936 51.4382C31.986 51.3624 31.9015 51.2585 31.8492 51.1378L26.4381 38.5045C26.3973 38.4175 26.3744 38.3232 26.3708 38.2272C26.3672 38.1312 26.3829 38.0354 26.4171 37.9456C26.4512 37.8558 26.5031 37.7738 26.5696 37.7045C26.6361 37.6351 26.7159 37.5799 26.8042 37.542C26.8925 37.5041 26.9875 37.4844 27.0836 37.484C27.1796 37.4836 27.2748 37.5026 27.3634 37.5397C27.452 37.5768 27.5322 37.6314 27.5993 37.7002C27.6664 37.769 27.7189 37.8506 27.7538 37.9401L32.6148 49.2828L34.9783 45.3436C35.0558 45.2146 35.1719 45.1132 35.3103 45.054C35.4486 44.9947 35.6021 44.9805 35.749 45.0134L40.2325 46.0161L35.8048 35.6804C35.7662 35.5937 35.7452 35.5002 35.743 35.4053C35.7408 35.3105 35.7575 35.2161 35.7921 35.1277C35.8267 35.0393 35.8785 34.9587 35.9446 34.8905C36.0106 34.8224 36.0896 34.768 36.1768 34.7306C36.264 34.6932 36.3578 34.6735 36.4527 34.6727C36.5476 34.6718 36.6418 34.6899 36.7296 34.7257C36.8175 34.7616 36.8974 34.8146 36.9646 34.8816C37.0318 34.9486 37.0851 35.0283 37.1212 35.1161L42.1025 46.7367C42.1545 46.8579 42.1721 46.9912 42.1531 47.1218C42.1342 47.2524 42.0796 47.3752 41.9953 47.4767C41.9109 47.5782 41.8002 47.6544 41.6753 47.697C41.5504 47.7395 41.4162 47.7468 41.2875 47.7179L35.9423 46.5239L33.1219 51.2202C33.0582 51.3262 32.9681 51.4139 32.8604 51.4748C32.7527 51.5357 32.6311 51.5676 32.5074 51.5675V51.5675Z" fill="#244691"/>
<path d="M20.4924 51.5676C20.3687 51.5677 20.2471 51.5357 20.1394 51.4748C20.0317 51.414 19.9416 51.3262 19.8779 51.2202L17.0574 46.524L11.7123 47.7179C11.5836 47.7468 11.4493 47.7396 11.3244 47.697C11.1995 47.6545 11.0888 47.5782 11.0045 47.4767C10.9202 47.3752 10.8656 47.2524 10.8466 47.1218C10.8277 46.9912 10.8452 46.8579 10.8973 46.7367L15.8785 35.1161C15.9551 34.9442 16.0963 34.8094 16.2716 34.7407C16.4468 34.6721 16.642 34.6752 16.8149 34.7494C16.9879 34.8235 17.1247 34.9628 17.1958 35.137C17.2669 35.3112 17.2666 35.5065 17.1949 35.6805L12.7651 46.0147L17.2487 45.012C17.3955 44.9791 17.549 44.9933 17.6873 45.0526C17.8257 45.1118 17.9418 45.2132 18.0193 45.3422L20.3828 49.2814L25.2438 37.9387C25.2787 37.8492 25.3312 37.7676 25.3983 37.6988C25.4654 37.63 25.5456 37.5754 25.6342 37.5383C25.7228 37.5012 25.818 37.4822 25.914 37.4826C26.0101 37.483 26.1051 37.5027 26.1934 37.5406C26.2817 37.5785 26.3615 37.6337 26.428 37.7031C26.4945 37.7724 26.5464 37.8544 26.5805 37.9442C26.6147 38.034 26.6304 38.1298 26.6268 38.2258C26.6232 38.3218 26.6003 38.4161 26.5595 38.5031L21.1506 51.1335C21.0983 51.2542 21.0137 51.3582 20.9062 51.434C20.7987 51.5098 20.6724 51.5545 20.5411 51.5633L20.4924 51.5676Z" fill="#244691"/>
<path d="M42.5647 13.7943C42.3869 13.794 42.2156 13.7277 42.0841 13.6081C41.6618 13.2489 41.2951 12.8289 40.9962 12.3619C40.849 12.1015 40.732 11.8252 40.6474 11.5383C40.6193 11.448 40.6094 11.3531 40.6182 11.2591C40.627 11.165 40.6543 11.0736 40.6986 10.9901C40.7428 10.9066 40.8032 10.8327 40.8761 10.7727C40.9491 10.7126 41.0332 10.6676 41.1236 10.6402C41.214 10.6128 41.309 10.6036 41.403 10.613C41.497 10.6225 41.5882 10.6505 41.6714 10.6953C41.7545 10.7402 41.828 10.801 41.8875 10.8744C41.947 10.9478 41.9915 11.0322 42.0182 11.1228C42.0703 11.3029 42.1424 11.4766 42.2331 11.6407C42.4606 11.9788 42.7336 12.2839 43.0446 12.5474C43.1517 12.6445 43.227 12.7718 43.2604 12.9125C43.2939 13.0532 43.2839 13.2007 43.2319 13.3357C43.1799 13.4706 43.0883 13.5867 42.969 13.6685C42.8498 13.7504 42.7086 13.7943 42.564 13.7943H42.5647Z" fill="#244691"/>
<path d="M22.1065 40.0064C21.855 40.0073 21.6044 39.9758 21.361 39.9126C20.253 39.6175 19.5188 38.7172 18.8091 37.8456C18.4265 37.3079 17.9566 36.838 17.4189 36.4554C17.0925 36.2862 16.7431 36.1656 16.3818 36.0973C16.0903 36.0336 15.7859 35.9834 15.4815 35.9333C14.3836 35.7521 13.2491 35.5644 12.4548 34.7637C11.6605 33.963 11.4707 32.8349 11.2895 31.7356C11.2247 31.0663 11.0482 30.4127 10.7674 29.8018C10.3832 29.2654 9.91267 28.7963 9.37507 28.4137C8.50416 27.7033 7.60244 26.9684 7.30807 25.8604C7.14295 24.783 7.31953 23.681 7.81301 22.7091C8.09824 22.0803 8.27524 21.4079 8.33656 20.7201C8.27515 20.0327 8.09815 19.3605 7.81301 18.7319C7.32094 17.7596 7.14562 16.6576 7.31166 15.5806C7.60602 14.4726 8.50702 13.7378 9.37866 13.0273C9.91685 12.6446 10.3876 12.175 10.7717 11.6378C11.0523 11.0268 11.2288 10.3732 11.2938 9.70403C11.353 8.5979 11.7578 7.53823 12.4512 6.67443C13.3155 5.97896 14.3766 5.57282 15.4844 5.51344C16.1548 5.44833 16.8096 5.27162 17.4218 4.99061C17.9579 4.60659 18.4267 4.13635 18.8091 3.599C19.5203 2.72736 20.2551 1.82565 21.3631 1.53128C22.4252 1.2448 23.4895 1.64588 24.5195 2.03263C25.1453 2.31779 25.8149 2.49505 26.4998 2.5569C27.186 2.49522 27.8568 2.31771 28.4837 2.03192C29.4578 1.53647 30.5634 1.36103 31.643 1.53057C32.1868 1.68834 32.6834 1.97761 33.089 2.37284C33.1583 2.43642 33.2144 2.51303 33.2541 2.5983C33.2938 2.68357 33.3164 2.77582 33.3204 2.8698C33.3245 2.96377 33.31 3.05762 33.2778 3.146C33.2456 3.23437 33.1963 3.31553 33.1327 3.38485C33.0691 3.45417 32.9925 3.51029 32.9072 3.55C32.822 3.58971 32.7297 3.61223 32.6357 3.61629C32.4459 3.62448 32.2607 3.55695 32.1207 3.42854C31.8851 3.18993 31.5947 3.01264 31.2748 2.91215C30.4861 2.84768 29.6952 3.00705 28.993 3.37196C28.2057 3.72582 27.3612 3.93496 26.4998 3.98934C25.6394 3.93462 24.7959 3.72549 24.0095 3.37196C23.3082 3.00726 22.5184 2.84765 21.7305 2.91143C20.9856 3.25615 20.3556 3.80784 19.9156 4.50072C19.4303 5.179 18.8275 5.76502 18.1358 6.23109C17.3761 6.60627 16.5552 6.84206 15.7122 6.92726C14.9049 6.96363 14.1243 7.22729 13.4604 7.68788C13.0021 8.3514 12.7397 9.13049 12.7033 9.93608C12.618 10.7785 12.3825 11.5989 12.0079 12.3583C11.5423 13.05 10.9573 13.6534 10.2804 14.1403C9.58786 14.5789 9.03635 15.2078 8.6918 15.9516C8.62983 16.7394 8.78961 17.5289 9.15305 18.2306C9.50581 19.0181 9.71443 19.8625 9.76899 20.7237C9.71435 21.5851 9.50574 22.4298 9.15305 23.2176C8.78953 23.9193 8.62976 24.7088 8.6918 25.4966C9.03697 26.24 9.58834 26.8687 10.2804 27.3079C10.9568 27.7939 11.5415 28.3963 12.0072 29.087C12.3809 29.8444 12.6164 30.6625 12.7026 31.5028C12.7386 32.3102 13.0042 33.0907 13.4683 33.7524C14.1279 34.2182 14.9075 34.4847 15.7143 34.5202C16.0445 34.5753 16.3739 34.6298 16.6912 34.6993C17.1937 34.7972 17.6785 34.9703 18.1294 35.2128C18.8256 35.6775 19.4322 36.2642 19.9199 36.9446C20.3575 37.6362 20.9851 38.1869 21.7277 38.531C22.5152 38.5935 23.3045 38.4339 24.0059 38.0705C24.5792 37.8351 25.1724 37.652 25.7786 37.5233C26.2551 37.4323 26.7445 37.4323 27.221 37.5233C27.8272 37.652 28.4205 37.8351 28.9937 38.0705C29.6961 38.4326 30.4855 38.592 31.2734 38.531C32.0153 38.1863 32.6425 37.6356 33.0804 36.9446C33.5667 36.2654 34.1716 35.6794 34.8659 35.2149C35.3176 34.9716 35.8034 34.798 36.307 34.7C36.6264 34.6283 36.9558 34.5753 37.2846 34.5209C38.0927 34.4831 38.8733 34.2158 39.5349 33.7503C39.9953 33.089 40.2586 32.3106 40.2941 31.5056C40.3796 30.6639 40.6151 29.8443 40.9896 29.0856C41.4551 28.3939 42.04 27.7908 42.7171 27.3043C43.4093 26.865 43.9607 26.2361 44.3057 25.4923C44.3676 24.7047 44.2079 23.9155 43.8444 23.214C43.4917 22.4262 43.2831 21.5816 43.2285 20.7201C43.2837 19.8514 43.4953 18.9998 43.853 18.2062C43.9304 18.0021 44.0077 17.7987 44.0779 17.5967C44.1408 17.4174 44.2723 17.2704 44.4436 17.1881C44.6148 17.1057 44.8118 17.0948 44.9911 17.1577C45.1704 17.2206 45.3174 17.3521 45.3997 17.5233C45.4821 17.6946 45.493 17.8915 45.4301 18.0709C45.3585 18.2857 45.274 18.5006 45.1923 18.7155C44.9028 19.349 44.7231 20.0271 44.6609 20.7209C44.7222 21.4086 44.8992 22.081 45.1845 22.7098C45.6768 23.682 45.8521 24.7841 45.6858 25.8611C45.3914 26.9699 44.4897 27.7047 43.6188 28.4152C43.0808 28.798 42.61 29.2676 42.2258 29.8046C41.9451 30.4156 41.7686 31.0692 41.7036 31.7384C41.5239 32.8349 41.3384 33.9694 40.5441 34.7637C39.6817 35.4629 38.6203 35.8715 37.5116 35.9311C37.2072 35.9813 36.9036 36.0314 36.6106 36.0952C36.2486 36.1632 35.8985 36.2839 35.5714 36.4533C35.035 36.8364 34.5663 37.3065 34.1848 37.8442C33.475 38.7158 32.7409 39.6161 31.6344 39.9104C30.5573 40.0758 29.4555 39.9005 28.483 39.4091C27.9905 39.2059 27.4813 39.0458 26.961 38.9307C26.6522 38.8698 26.3345 38.8698 26.0257 38.9307C25.5055 39.0458 24.9962 39.2059 24.5037 39.4091C23.7462 39.7482 22.9346 39.9504 22.1065 40.0064Z" fill="#244691"/>
<path d="M39.0052 7.29108C38.9219 7.29105 38.8392 7.2775 38.7603 7.25097C38.269 7.09853 37.7659 6.98714 37.2562 6.91793C36.9619 6.86923 36.6689 6.81981 36.3846 6.75965C36.2918 6.74108 36.2035 6.7043 36.125 6.65143C36.0465 6.59855 35.9792 6.53064 35.9271 6.45161C35.875 6.37258 35.8391 6.28401 35.8214 6.19101C35.8038 6.09801 35.8047 6.00243 35.8242 5.9098C35.8437 5.81716 35.8814 5.72932 35.935 5.65133C35.9887 5.57335 36.0573 5.50678 36.1369 5.45547C36.2164 5.40416 36.3053 5.36913 36.3985 5.3524C36.4917 5.33567 36.5872 5.33758 36.6797 5.35802C36.944 5.4146 37.2176 5.45972 37.4919 5.50556C38.0747 5.58589 38.6497 5.71527 39.2108 5.89231C39.3731 5.94389 39.5117 6.05163 39.6018 6.19621C39.6919 6.34078 39.7275 6.51272 39.7022 6.68116C39.6769 6.84961 39.5924 7.00353 39.4639 7.11531C39.3354 7.22709 39.1712 7.28941 39.0009 7.29108H39.0052Z" fill="#244691"/>
<path d="M26.5003 33.8427C23.9301 33.8427 21.4176 33.0805 19.2806 31.6525C17.1436 30.2246 15.478 28.195 14.4944 25.8204C13.5109 23.4459 13.2536 20.833 13.7551 18.3122C14.2565 15.7914 15.4943 13.4759 17.3117 11.6585C19.1292 9.84115 21.4447 8.60355 23.9656 8.10222C26.4864 7.60088 29.0993 7.85833 31.4738 8.842C33.8483 9.82567 35.8778 11.4914 37.3057 13.6285C38.7335 15.7656 39.4955 18.2781 39.4954 20.8483C39.4912 24.2935 38.1207 27.5963 35.6846 30.0324C33.2484 32.4684 29.9455 33.8387 26.5003 33.8427V33.8427ZM26.5003 9.28576C24.2135 9.28576 21.978 9.96389 20.0765 11.2344C18.175 12.5049 16.693 14.3107 15.8179 16.4235C14.9427 18.5363 14.7138 20.8612 15.1599 23.1041C15.6061 25.347 16.7073 27.4073 18.3243 29.0243C19.9414 30.6414 22.0017 31.7426 24.2446 32.1888C26.4875 32.6349 28.8124 32.4059 30.9252 31.5308C33.0379 30.6556 34.8438 29.1736 36.1143 27.2722C37.3848 25.3707 38.0629 23.1352 38.0629 20.8483C38.0593 17.7829 36.84 14.844 34.6724 12.6763C32.5047 10.5087 29.5658 9.28936 26.5003 9.28576V9.28576Z" fill="#244691"/>
<path d="M30.4845 27.305C30.3682 27.3051 30.2536 27.2768 30.1507 27.2227L26.5001 25.3039L22.8474 27.2227C22.7292 27.2849 22.5958 27.3127 22.4626 27.3031C22.3293 27.2935 22.2013 27.2467 22.0932 27.1682C21.9851 27.0897 21.9011 26.9825 21.8507 26.8587C21.8004 26.7349 21.7856 26.5995 21.8082 26.4678L22.5051 22.4025L19.5529 19.5241C19.4571 19.4308 19.3893 19.3126 19.3573 19.1828C19.3252 19.0531 19.3301 18.9169 19.3714 18.7898C19.4126 18.6626 19.4887 18.5496 19.5909 18.4634C19.6931 18.3773 19.8173 18.3214 19.9496 18.3022L24.0321 17.7092L25.8556 14.0114C25.9214 13.8995 26.0153 13.8068 26.128 13.7424C26.2407 13.678 26.3682 13.6441 26.498 13.6441C26.6278 13.6441 26.7553 13.678 26.868 13.7424C26.9807 13.8068 27.0746 13.8995 27.1404 14.0114L28.9654 17.7092L33.0478 18.3022C33.1803 18.321 33.3049 18.3765 33.4075 18.4625C33.5101 18.5485 33.5865 18.6615 33.6281 18.7887C33.6697 18.9159 33.6748 19.0522 33.6429 19.1822C33.611 19.3122 33.5433 19.4306 33.4474 19.5241L30.4945 22.4025L31.1914 26.4678C31.209 26.5706 31.204 26.6759 31.1766 26.7765C31.1493 26.8772 31.1003 26.9706 31.0332 27.0503C30.966 27.1301 30.8822 27.1942 30.7877 27.2382C30.6931 27.2821 30.5902 27.305 30.4859 27.305H30.4845ZM26.5001 23.7784C26.6161 23.7782 26.7304 23.8063 26.8332 23.86L29.5326 25.2824L29.0169 22.2743C28.9974 22.1599 29.0059 22.0424 29.0418 21.932C29.0778 21.8215 29.14 21.7215 29.2232 21.6405L31.4069 19.5119L28.3888 19.0736C28.2739 19.0569 28.1648 19.0125 28.0708 18.9443C27.9768 18.876 27.9009 18.7859 27.8495 18.6818L26.5001 15.9459L25.1508 18.6811C25.0994 18.7852 25.0234 18.8753 24.9295 18.9435C24.8355 19.0118 24.7264 19.0562 24.6115 19.0729L21.5934 19.5112L23.7785 21.6398C23.8617 21.7208 23.924 21.8208 23.9599 21.9312C23.9958 22.0417 24.0044 22.1592 23.9848 22.2736L23.4691 25.2817L26.1685 23.8622C26.2707 23.8079 26.3845 23.7791 26.5001 23.7784V23.7784Z" fill="#244691"/>
</svg>
